<?xml version="1.0" encoding="utf-8" standalone="no"?>
<!--
  mask-base.svg — solid mask + body + collar with NO holes punched.
  Holes (eyes + active viseme) are added via SVG <mask> at runtime.
-->
<svg xmlns="http://www.w3.org/2000/svg" viewBox="40 20 320 280" width="320" height="280">
  <g id="body" transform="translate(-4, -4)">
    <g transform="translate(0.000000,408.000000) scale(0.100000,-0.100000)" fill="#000000" fill-rule="evenodd">
      <path d="M2995 3410 c-3 -5 -15 -10 -25 -10 -10 0 -25 -7 -33 -15 -18 -17 -86
-34 -139 -35 -20 0 -38 -5 -40 -10 -6 -20 -345 -50 -565 -50 l-153 0 0 -1055
c0 -998 1 -1055 18 -1055 114 2 228 38 310 97 23 17 55 36 72 43 16 7 30 17
30 22 0 9 95 108 104 108 10 0 90 91 105 117 7 14 26 38 42 54 16 16 29 32 29
37 0 4 7 17 15 27 35 46 70 104 93 155 14 30 33 66 44 79 10 13 18 31 18 40 0
9 9 34 20 56 11 22 20 49 20 61 0 12 6 27 14 33 7 6 16 31 19 56 4 24 15 63
26 87 63 138 101 639 65 871 -8 56 -21 142 -29 191 -14 92 -38 131 -60 96z"/>
      <path d="M1491 1093 c-37 -5 -106 -46 -115 -69 -3 -8 -14 -14 -24 -14 -11 0
-31 -11 -46 -25 -15 -13 -35 -29 -46 -35 -11 -6 -20 -16 -20 -23 0 -31 -252
-257 -287 -257 -7 0 -13 -4 -13 -9 0 -5 -26 -19 -57 -31 -32 -12 -68 -27 -79
-35 -12 -8 -59 -28 -105 -45 -46 -17 -100 -38 -119 -45 -19 -8 -51 -17 -70
-21 -19 -3 -53 -15 -75 -24 -22 -10 -58 -21 -80 -25 -22 -3 -58 -12 -80 -20
-22 -7 -82 -26 -132 -41 l-93 -28 0 -148 0 -148 694 0 693 0 -12 72 c-7 40
-18 123 -24 183 -16 151 -29 222 -57 312 -45 146 -43 188 14 316 23 50 52 76
52 47 0 -49 339 -332 583 -488 136 -87 44 -87 -201 -1 -145 51 -148 47 -192
-186 -15 -75 -19 -127 -15 -165 6 -53 5 -56 -22 -72 -33 -20 -10 -25 31 -7 19
9 29 9 40 0 10 -9 71 -12 215 -10 l201 2 -6 23 c-12 48 60 114 123 114 26 0
47 -14 107 -70 l76 -70 168 0 167 0 38 118 c47 148 55 322 15 343 -31 17 -117
5 -238 -34 -139 -45 -246 -70 -265 -63 -16 6 -21 46 -6 46 5 0 60 34 122 76
63 42 157 97 209 121 80 38 134 70 246 148 72 50 78 -249 8 -469 -14 -44 -27
-98 -30 -120 -8 -71 -11 -141 -6 -154 3 -9 138 -12 628 -12 l624 0 0 69 0 69
-32 7 c-18 3 -42 10 -53 15 -46 21 -233 83 -265 87 -19 3 -37 8 -40 12 -5 6
-96 47 -135 61 -11 3 -40 16 -65 28 -25 12 -51 22 -58 22 -81 0 -409 195 -428
253 -12 37 -114 167 -132 167 -4 0 -23 13 -42 29 -19 15 -48 31 -65 33 -16 3
-60 17 -96 31 -66 25 -158 43 -193 38 -10 -2 -22 2 -25 7 -12 20 -398 81 -671
106 -169 15 -181 16 -239 9z"/>
    </g>
  </g>
  <g id="white-half" transform="translate(-4, -4)">
    <g transform="translate(0.000000,408.000000) scale(0.100000,-0.100000)" fill="#f5f0e0" fill-rule="evenodd">
      <path d="M1270 3319 c0 -2 -11 -56 -25 -119 -149 -684 299 -1873 758 -2007
l37 -11 0 1054 c0 580 -1 1054 -2 1055 -2 0 -100 4 -218 9 -118 5 -290 12
-382 16 -93 4 -168 5 -168 3z"/>
    </g>
  </g>
  <g id="collar" transform="translate(-4, -4)">
    <g transform="translate(0.000000,408.000000) scale(0.100000,-0.100000)" fill="#d4e8e8" fill-rule="evenodd">
      <path d="M1473 1050 c-71 -29 125 -267 198 -241 137 48 833 -23 874 -89 12
-19 42 -9 128 42 111 67 108 89 -15 122 -29 8 -75 21 -103 30 -27 8 -90 22
-140 30 -49 9 -139 25 -200 36 -313 58 -685 93 -742 70z"/>
      <path d="M1371 938 c-62 -139 -63 -163 -17 -321 19 -64 38 -145 41 -179 3 -35
15 -136 27 -225 l22 -163 33 0 c45 0 115 40 106 60 -16 38 -12 106 16 239 42
202 45 204 212 145 234 -83 275 -76 127 22 -234 155 -527 404 -528 447 0 20
-27 3 -39 -25z"/>
      <path d="M2750 753 c-36 -25 -106 -64 -155 -88 -96 -46 -205 -107 -227 -128
-22 -20 -102 -73 -120 -80 -24 -8 -23 -37 0 -37 19 0 122 27 302 79 231 67
282 -23 185 -326 -42 -132 -42 -123 0 -123 25 0 33 4 29 14 -10 26 15 194 40
268 56 164 68 471 18 467 -4 0 -36 -21 -72 -46z"/>
      <path d="M1750 771 c-30 -3 -54 -9 -53 -14 11 -33 345 -262 400 -273 58 -12
125 12 224 79 52 35 116 76 142 92 60 34 57 37 -73 69 -175 42 -473 64 -640
47z"/>
      <path d="M2125 171 c-53 -32 -78 -67 -71 -95 l6 -26 135 0 c74 0 135 2 135 4
0 10 -151 136 -163 136 -7 0 -25 -8 -42 -19z"/>
    </g>
  </g>
</svg>
